<?xml version="1.0" encoding="UTF-8" standalone="no"?>
<svg width="80" height="80" viewBox="0 0 80 80" xmlns="http://www.w3.org/2000/svg">
  <defs>
    <!-- Glow filter -->
    <filter id="logo-glow" x="-30%" y="-30%" width="160%" height="160%">
      <feGaussianBlur in="SourceGraphic" stdDeviation="2" result="blur" />
      <feColorMatrix in="blur" mode="matrix" values="
        1 0 0 0 0
        0 1 0 0 0
        0 0 1 0 0
        0 0 0 10 -6" result="glow" />
      <feComposite in="SourceGraphic" in2="glow" operator="over" />
    </filter>
  </defs>
  
  <!-- Anime-styled Microsoft Logo -->
  <g filter="url(#logo-glow)">
    <!-- Red square -->
    <rect x="8" y="8" width="28" height="28" rx="2" ry="2" fill="#FF6B9E" />
    
    <!-- Green square -->
    <rect x="44" y="8" width="28" height="28" rx="2" ry="2" fill="#50E3C2" />
    
    <!-- Blue square -->
    <rect x="8" y="44" width="28" height="28" rx="2" ry="2" fill="#8A2BE2" />
    
    <!-- Yellow square -->
    <rect x="44" y="44" width="28" height="28" rx="2" ry="2" fill="#FFD700" />
    
    <!-- Pixel art-style overlay -->
    <rect x="8" y="8" width="7" height="7" fill="#FF92B6" opacity="0.5" />
    <rect x="44" y="8" width="7" height="7" fill="#7CEBD3" opacity="0.5" />
    <rect x="8" y="44" width="7" height="7" fill="#A15AFF" opacity="0.5" />
    <rect x="44" y="44" width="7" height="7" fill="#FFE359" opacity="0.5" />
    
    <!-- Shine effects -->
    <rect x="8" y="8" width="2" height="28" fill="white" opacity="0.2" />
    <rect x="8" y="8" width="28" height="2" fill="white" opacity="0.2" />
    <rect x="44" y="8" width="2" height="28" fill="white" opacity="0.2" />
    <rect x="44" y="8" width="28" height="2" fill="white" opacity="0.2" />
    <rect x="8" y="44" width="2" height="28" fill="white" opacity="0.2" />
    <rect x="8" y="44" width="28" height="2" fill="white" opacity="0.2" />
    <rect x="44" y="44" width="2" height="28" fill="white" opacity="0.2" />
    <rect x="44" y="44" width="28" height="2" fill="white" opacity="0.2" />
  </g>
</svg>
