<?xml version="1.0" encoding="UTF-8"?>
<svg width="1200" height="800" viewBox="0 0 1200 800" fill="none" xmlns="http://www.w3.org/2000/svg">
  <!-- Anime-style background -->
  <defs>
    <radialGradient id="skyGrad" cx="50%" cy="50%" r="70%" fx="50%" fy="50%">
      <stop offset="0%" stop-color="#84D6FF"/>
      <stop offset="100%" stop-color="#4A90E2"/>
    </radialGradient>
    <linearGradient id="cloudGrad" x1="0" y1="0" x2="0" y2="1">
      <stop offset="0%" stop-color="#FFFFFF"/>
      <stop offset="100%" stop-color="#E6F7FF"/>
    </linearGradient>
  </defs>

  <!-- Sky background -->
  <rect width="1200" height="800" fill="url(#skyGrad)"/>

  <!-- Anime-style clouds -->
  <g opacity="0.8">
    <!-- Cloud 1 -->
    <path d="M100 200 Q130 170 170 180 Q190 150 230 160 Q260 150 280 180 Q310 170 330 200 Q320 230 280 240 Q260 270 220 255 Q190 275 160 250 Q120 260 100 230 Q90 220 100 200" fill="url(#cloudGrad)" stroke="#FFFFFF" stroke-width="2"/>
    
    <!-- Cloud 2 -->
    <path d="M700 150 Q730 120 770 130 Q790 100 830 110 Q860 100 880 130 Q910 120 930 150 Q920 180 880 190 Q860 220 820 205 Q790 225 760 200 Q720 210 700 180 Q690 170 700 150" fill="url(#cloudGrad)" stroke="#FFFFFF" stroke-width="2"/>
    
    <!-- Cloud 3 -->
    <path d="M300 400 Q330 370 370 380 Q390 350 430 360 Q460 350 480 380 Q510 370 530 400 Q520 430 480 440 Q460 470 420 455 Q390 475 360 450 Q320 460 300 430 Q290 420 300 400" fill="url(#cloudGrad)" stroke="#FFFFFF" stroke-width="2"/>
    
    <!-- Cloud 4 -->
    <path d="M800 350 Q830 320 870 330 Q890 300 930 310 Q960 300 980 330 Q1010 320 1030 350 Q1020 380 980 390 Q960 420 920 405 Q890 425 860 400 Q820 410 800 380 Q790 370 800 350" fill="url(#cloudGrad)" stroke="#FFFFFF" stroke-width="2"/>
  </g>

  <!-- Anime-style sparkles -->
  <g>
    <circle cx="200" cy="150" r="3" fill="white"/>
    <circle cx="500" cy="250" r="2" fill="white"/>
    <circle cx="800" cy="200" r="4" fill="white"/>
    <circle cx="1000" cy="300" r="3" fill="white"/>
    <circle cx="300" cy="350" r="2" fill="white"/>
    <circle cx="700" cy="400" r="3" fill="white"/>
    <circle cx="900" cy="150" r="2" fill="white"/>
    <circle cx="100" cy="300" r="3" fill="white"/>
    <circle cx="1100" cy="200" r="2" fill="white"/>
    <circle cx="600" cy="100" r="3" fill="white"/>
  </g>
</svg>
