<?xml version="1.0" encoding="UTF-8"?>
<svg width="400" height="500" viewBox="0 0 400 500" fill="none" xmlns="http://www.w3.org/2000/svg">
  <!-- Anime character illustration for Microsoft 50th anniversary -->
  <defs>
    <filter id="glow" x="-20%" y="-20%" width="140%" height="140%">
      <feGaussianBlur stdDeviation="3" result="blur" />
      <feFlood flood-color="#ff6b9e" flood-opacity="0.7" result="color"/>
      <feComposite in="color" in2="blur" operator="in" result="shadowBlur"/>
      <feComposite in="SourceGraphic" in2="shadowBlur" operator="over"/>
    </filter>
    <linearGradient id="hairGrad" x1="0" y1="0" x2="1" y2="1">
      <stop offset="0%" stop-color="#734A47"/>
      <stop offset="100%" stop-color="#4A2C2A"/>
    </linearGradient>
    <linearGradient id="skinGrad" x1="0" y1="0" x2="1" y2="1">
      <stop offset="0%" stop-color="#FFDAC1"/>
      <stop offset="100%" stop-color="#FACBAA"/>
    </linearGradient>
    <linearGradient id="outfitGrad" x1="0" y1="0" x2="1" y2="1">
      <stop offset="0%" stop-color="#8a2be2"/>
      <stop offset="100%" stop-color="#9370DB"/>
    </linearGradient>
  </defs>

  <!-- Character base -->
  <g filter="url(#glow)">
    <!-- Body/outfit -->
    <path d="M200 180 L150 400 L250 400 Z" fill="url(#outfitGrad)" stroke="#000" stroke-width="3"/>
    
    <!-- Head -->
    <circle cx="200" cy="120" r="80" fill="url(#skinGrad)" stroke="#000" stroke-width="3"/>
    
    <!-- Hair -->
    <path d="M200 40 Q250 60 240 130 Q200 150 160 130 Q150 60 200 40" fill="url(#hairGrad)" stroke="#000" stroke-width="3"/>
    <path d="M130 120 Q120 150 140 160" fill="url(#hairGrad)" stroke="#000" stroke-width="3"/>
    <path d="M270 120 Q280 150 260 160" fill="url(#hairGrad)" stroke="#000" stroke-width="3"/>
    
    <!-- Eyes -->
    <ellipse cx="170" cy="110" rx="15" ry="18" fill="white" stroke="#000" stroke-width="2"/>
    <ellipse cx="230" cy="110" rx="15" ry="18" fill="white" stroke="#000" stroke-width="2"/>
    <circle cx="170" cy="110" r="10" fill="#4a90e2" stroke="#000" stroke-width="1"/>
    <circle cx="230" cy="110" r="10" fill="#4a90e2" stroke="#000" stroke-width="1"/>
    <circle cx="173" cy="107" r="3" fill="white"/>
    <circle cx="233" cy="107" r="3" fill="white"/>
    
    <!-- Mouth -->
    <path d="M190 140 Q200 150 210 140" stroke="#000" stroke-width="2" fill="none"/>
    
    <!-- Blush -->
    <circle cx="160" cy="130" r="10" fill="#ff6b9e" opacity="0.3"/>
    <circle cx="240" cy="130" r="10" fill="#ff6b9e" opacity="0.3"/>

    <!-- Arms -->
    <path d="M175 200 Q130 230 120 350" stroke="#000" stroke-width="3" fill="url(#outfitGrad)"/>
    <path d="M225 200 Q270 230 280 350" stroke="#000" stroke-width="3" fill="url(#outfitGrad)"/>
    
    <!-- Hands -->
    <circle cx="120" cy="350" r="15" fill="url(#skinGrad)" stroke="#000" stroke-width="2"/>
    <circle cx="280" cy="350" r="15" fill="url(#skinGrad)" stroke="#000" stroke-width="2"/>
  </g>

  <!-- Microsoft items floating around character -->
  <!-- Windows logo -->
  <g transform="translate(100, 240) scale(0.5) rotate(-15)">
    <rect x="10" y="10" width="30" height="30" rx="3" fill="#ff3e3e" stroke="#000" stroke-width="2" />
    <rect x="46" y="10" width="30" height="30" rx="3" fill="#2bb596" stroke="#000" stroke-width="2" />
    <rect x="10" y="46" width="30" height="30" rx="3" fill="#4a90e2" stroke="#000" stroke-width="2" />
    <rect x="46" y="46" width="30" height="30" rx="3" fill="#ffcc29" stroke="#000" stroke-width="2" />
  </g>
  
  <!-- Xbox controller -->
  <g transform="translate(300, 260) scale(0.4) rotate(15)">
    <path d="M20 50 Q20 20 50 20 L150 20 Q180 20 180 50 L180 100 Q180 130 150 130 L50 130 Q20 130 20 100 Z" fill="#3a3a3a" stroke="#000" stroke-width="3"/>
    <circle cx="60" cy="70" r="15" fill="#4a90e2" stroke="#000" stroke-width="2"/>
    <circle cx="140" cy="70" r="15" fill="#ff3e3e" stroke="#000" stroke-width="2"/>
    <circle cx="100" cy="90" r="10" fill="#fff" stroke="#000" stroke-width="2"/>
  </g>

  <!-- Surface tablet -->
  <g transform="translate(70, 350) scale(0.3) rotate(-10)">
    <rect x="10" y="10" width="180" height="120" rx="5" fill="#3a3a3a" stroke="#000" stroke-width="3"/>
    <rect x="20" y="20" width="160" height="100" rx="2" fill="#4a90e2" stroke="#000" stroke-width="2"/>
  </g>
</svg>
